<mxfile host="app.diagrams.net" modified="2024-02-21T13:13:29.859Z" agent="Mozilla/5.0 (Macintosh; Intel Mac OS X 10_15_7) AppleWebKit/605.1.15 (KHTML, like Gecko) Version/17.2.1 Safari/605.1.15" version="23.1.5" etag="r3TKCC5MkLTrbaJHQCpP" type="github">
  <diagram name="Page-1" id="-cBQ7gy05ztX3qyQfhL6">
    <mxGraphModel>
      <root>
        <mxCell id="0" />
        <mxCell id="1" parent="0" />
      </root>
    </mxGraphModel>
  </diagram>
</mxfile>
